<mxfile host="app.diagrams.net" agent="Mozilla/5.0 (Windows NT 10.0; Win64; x64) AppleWebKit/537.36 (KHTML, like Gecko) Chrome/133.0.0.0 Safari/537.36" version="26.0.14">
  <diagram name="Página-1" id="V2Hfhu_Fie-1NPUHK7ce">
    <mxGraphModel grid="1" page="1" gridSize="10" guides="1" tooltips="1" connect="1" arrows="1" fold="1" pageScale="1" pageWidth="827" pageHeight="1169" math="0" shadow="0">
      <root>
        <mxCell id="0" />
        <mxCell id="1" parent="0" />
        <mxCell id="vG_-hnopXsJ-OyCV_dhs-3" style="edgeStyle=orthogonalEdgeStyle;rounded=0;orthogonalLoop=1;jettySize=auto;html=1;entryX=0.5;entryY=0;entryDx=0;entryDy=0;" edge="1" parent="1" source="vG_-hnopXsJ-OyCV_dhs-1" target="vG_-hnopXsJ-OyCV_dhs-2">
          <mxGeometry relative="1" as="geometry" />
        </mxCell>
        <mxCell id="vG_-hnopXsJ-OyCV_dhs-1" value="Inicio" style="ellipse;whiteSpace=wrap;html=1;" vertex="1" parent="1">
          <mxGeometry x="370" y="10" width="120" height="80" as="geometry" />
        </mxCell>
        <mxCell id="vG_-hnopXsJ-OyCV_dhs-5" style="edgeStyle=orthogonalEdgeStyle;rounded=0;orthogonalLoop=1;jettySize=auto;html=1;entryX=0.5;entryY=0;entryDx=0;entryDy=0;" edge="1" parent="1" source="vG_-hnopXsJ-OyCV_dhs-2" target="vG_-hnopXsJ-OyCV_dhs-4">
          <mxGeometry relative="1" as="geometry" />
        </mxCell>
        <mxCell id="vG_-hnopXsJ-OyCV_dhs-2" value="chegada do cliente" style="rounded=1;whiteSpace=wrap;html=1;" vertex="1" parent="1">
          <mxGeometry x="370" y="150" width="120" height="60" as="geometry" />
        </mxCell>
        <mxCell id="vG_-hnopXsJ-OyCV_dhs-9" style="edgeStyle=orthogonalEdgeStyle;rounded=0;orthogonalLoop=1;jettySize=auto;html=1;entryX=0.5;entryY=0;entryDx=0;entryDy=0;" edge="1" parent="1" source="vG_-hnopXsJ-OyCV_dhs-4" target="vG_-hnopXsJ-OyCV_dhs-6">
          <mxGeometry relative="1" as="geometry" />
        </mxCell>
        <mxCell id="vG_-hnopXsJ-OyCV_dhs-4" value="recebe pedido do cliente" style="shape=document;whiteSpace=wrap;html=1;boundedLbl=1;" vertex="1" parent="1">
          <mxGeometry x="370" y="250" width="120" height="80" as="geometry" />
        </mxCell>
        <mxCell id="vG_-hnopXsJ-OyCV_dhs-10" style="edgeStyle=orthogonalEdgeStyle;rounded=0;orthogonalLoop=1;jettySize=auto;html=1;" edge="1" parent="1" source="vG_-hnopXsJ-OyCV_dhs-6">
          <mxGeometry relative="1" as="geometry">
            <mxPoint x="260" y="520" as="targetPoint" />
          </mxGeometry>
        </mxCell>
        <mxCell id="vG_-hnopXsJ-OyCV_dhs-27" value="SIM" style="edgeLabel;html=1;align=center;verticalAlign=middle;resizable=0;points=[];" connectable="0" vertex="1" parent="vG_-hnopXsJ-OyCV_dhs-10">
          <mxGeometry x="-0.5322" y="-2" relative="1" as="geometry">
            <mxPoint as="offset" />
          </mxGeometry>
        </mxCell>
        <mxCell id="vG_-hnopXsJ-OyCV_dhs-11" style="edgeStyle=orthogonalEdgeStyle;rounded=0;orthogonalLoop=1;jettySize=auto;html=1;entryX=0.5;entryY=0;entryDx=0;entryDy=0;" edge="1" parent="1" source="vG_-hnopXsJ-OyCV_dhs-6" target="vG_-hnopXsJ-OyCV_dhs-8">
          <mxGeometry relative="1" as="geometry" />
        </mxCell>
        <mxCell id="vG_-hnopXsJ-OyCV_dhs-28" value="NÃO" style="edgeLabel;html=1;align=center;verticalAlign=middle;resizable=0;points=[];" connectable="0" vertex="1" parent="vG_-hnopXsJ-OyCV_dhs-11">
          <mxGeometry x="-0.4927" y="2" relative="1" as="geometry">
            <mxPoint as="offset" />
          </mxGeometry>
        </mxCell>
        <mxCell id="vG_-hnopXsJ-OyCV_dhs-6" value="É Latte?" style="rhombus;whiteSpace=wrap;html=1;" vertex="1" parent="1">
          <mxGeometry x="375" y="380" width="110" height="90" as="geometry" />
        </mxCell>
        <mxCell id="vG_-hnopXsJ-OyCV_dhs-13" style="edgeStyle=orthogonalEdgeStyle;rounded=0;orthogonalLoop=1;jettySize=auto;html=1;entryX=0;entryY=0.5;entryDx=0;entryDy=0;" edge="1" parent="1" source="vG_-hnopXsJ-OyCV_dhs-7" target="vG_-hnopXsJ-OyCV_dhs-12">
          <mxGeometry relative="1" as="geometry">
            <Array as="points">
              <mxPoint x="240" y="640" />
              <mxPoint x="360" y="640" />
            </Array>
          </mxGeometry>
        </mxCell>
        <mxCell id="vG_-hnopXsJ-OyCV_dhs-7" value="Preparar latte" style="rounded=1;whiteSpace=wrap;html=1;" vertex="1" parent="1">
          <mxGeometry x="200" y="525" width="120" height="60" as="geometry" />
        </mxCell>
        <mxCell id="vG_-hnopXsJ-OyCV_dhs-14" style="edgeStyle=orthogonalEdgeStyle;rounded=0;orthogonalLoop=1;jettySize=auto;html=1;entryX=1;entryY=0.75;entryDx=0;entryDy=0;" edge="1" parent="1" source="vG_-hnopXsJ-OyCV_dhs-8" target="vG_-hnopXsJ-OyCV_dhs-12">
          <mxGeometry relative="1" as="geometry">
            <Array as="points">
              <mxPoint x="600" y="640" />
              <mxPoint x="480" y="640" />
            </Array>
          </mxGeometry>
        </mxCell>
        <mxCell id="vG_-hnopXsJ-OyCV_dhs-8" value="Preparar café espresso" style="rounded=1;whiteSpace=wrap;html=1;" vertex="1" parent="1">
          <mxGeometry x="530" y="525" width="120" height="60" as="geometry" />
        </mxCell>
        <mxCell id="vG_-hnopXsJ-OyCV_dhs-16" style="edgeStyle=orthogonalEdgeStyle;rounded=0;orthogonalLoop=1;jettySize=auto;html=1;entryX=0.5;entryY=0;entryDx=0;entryDy=0;" edge="1" parent="1" source="vG_-hnopXsJ-OyCV_dhs-12" target="vG_-hnopXsJ-OyCV_dhs-15">
          <mxGeometry relative="1" as="geometry" />
        </mxCell>
        <mxCell id="vG_-hnopXsJ-OyCV_dhs-12" value="entrega o produto ao cliente" style="rounded=1;whiteSpace=wrap;html=1;" vertex="1" parent="1">
          <mxGeometry x="360" y="600" width="120" height="60" as="geometry" />
        </mxCell>
        <mxCell id="vG_-hnopXsJ-OyCV_dhs-15" value="fim" style="ellipse;whiteSpace=wrap;html=1;" vertex="1" parent="1">
          <mxGeometry x="360" y="710" width="120" height="80" as="geometry" />
        </mxCell>
        <mxCell id="vG_-hnopXsJ-OyCV_dhs-19" style="edgeStyle=orthogonalEdgeStyle;rounded=0;orthogonalLoop=1;jettySize=auto;html=1;" edge="1" parent="1" source="vG_-hnopXsJ-OyCV_dhs-17" target="vG_-hnopXsJ-OyCV_dhs-18">
          <mxGeometry relative="1" as="geometry" />
        </mxCell>
        <mxCell id="vG_-hnopXsJ-OyCV_dhs-17" value="inicio&amp;nbsp;" style="ellipse;whiteSpace=wrap;html=1;" vertex="1" parent="1">
          <mxGeometry x="350" y="1220" width="120" height="80" as="geometry" />
        </mxCell>
        <mxCell id="vG_-hnopXsJ-OyCV_dhs-30" style="edgeStyle=orthogonalEdgeStyle;rounded=0;orthogonalLoop=1;jettySize=auto;html=1;entryX=0.5;entryY=0;entryDx=0;entryDy=0;" edge="1" parent="1" source="vG_-hnopXsJ-OyCV_dhs-18" target="vG_-hnopXsJ-OyCV_dhs-20">
          <mxGeometry relative="1" as="geometry" />
        </mxCell>
        <mxCell id="vG_-hnopXsJ-OyCV_dhs-18" value="verificar a temperatura" style="rounded=1;whiteSpace=wrap;html=1;" vertex="1" parent="1">
          <mxGeometry x="350" y="1340" width="120" height="60" as="geometry" />
        </mxCell>
        <mxCell id="vG_-hnopXsJ-OyCV_dhs-23" style="edgeStyle=orthogonalEdgeStyle;rounded=0;orthogonalLoop=1;jettySize=auto;html=1;" edge="1" parent="1" source="vG_-hnopXsJ-OyCV_dhs-20" target="vG_-hnopXsJ-OyCV_dhs-22">
          <mxGeometry relative="1" as="geometry" />
        </mxCell>
        <mxCell id="vG_-hnopXsJ-OyCV_dhs-26" value="NÃO" style="edgeLabel;html=1;align=center;verticalAlign=middle;resizable=0;points=[];" connectable="0" vertex="1" parent="vG_-hnopXsJ-OyCV_dhs-23">
          <mxGeometry x="-0.1688" y="-1" relative="1" as="geometry">
            <mxPoint as="offset" />
          </mxGeometry>
        </mxCell>
        <mxCell id="vG_-hnopXsJ-OyCV_dhs-24" style="edgeStyle=orthogonalEdgeStyle;rounded=0;orthogonalLoop=1;jettySize=auto;html=1;entryX=1;entryY=0.5;entryDx=0;entryDy=0;" edge="1" parent="1" source="vG_-hnopXsJ-OyCV_dhs-20" target="vG_-hnopXsJ-OyCV_dhs-21">
          <mxGeometry relative="1" as="geometry" />
        </mxCell>
        <mxCell id="vG_-hnopXsJ-OyCV_dhs-25" value="SIM" style="edgeLabel;html=1;align=center;verticalAlign=middle;resizable=0;points=[];" connectable="0" vertex="1" parent="vG_-hnopXsJ-OyCV_dhs-24">
          <mxGeometry x="0.0427" y="-3" relative="1" as="geometry">
            <mxPoint as="offset" />
          </mxGeometry>
        </mxCell>
        <mxCell id="vG_-hnopXsJ-OyCV_dhs-20" value="está frio?" style="rhombus;whiteSpace=wrap;html=1;" vertex="1" parent="1">
          <mxGeometry x="357" y="1430" width="106" height="100" as="geometry" />
        </mxCell>
        <mxCell id="vG_-hnopXsJ-OyCV_dhs-32" style="edgeStyle=orthogonalEdgeStyle;rounded=0;orthogonalLoop=1;jettySize=auto;html=1;entryX=0;entryY=0.5;entryDx=0;entryDy=0;" edge="1" parent="1" source="vG_-hnopXsJ-OyCV_dhs-21" target="vG_-hnopXsJ-OyCV_dhs-31">
          <mxGeometry relative="1" as="geometry">
            <Array as="points">
              <mxPoint x="170" y="1625" />
            </Array>
          </mxGeometry>
        </mxCell>
        <mxCell id="vG_-hnopXsJ-OyCV_dhs-21" value="veste um casaco" style="rounded=1;whiteSpace=wrap;html=1;" vertex="1" parent="1">
          <mxGeometry x="120" y="1450" width="120" height="60" as="geometry" />
        </mxCell>
        <mxCell id="vG_-hnopXsJ-OyCV_dhs-34" style="edgeStyle=orthogonalEdgeStyle;rounded=0;orthogonalLoop=1;jettySize=auto;html=1;entryX=0.5;entryY=0;entryDx=0;entryDy=0;" edge="1" parent="1" source="vG_-hnopXsJ-OyCV_dhs-22" target="vG_-hnopXsJ-OyCV_dhs-31">
          <mxGeometry relative="1" as="geometry">
            <Array as="points">
              <mxPoint x="600" y="1540" />
              <mxPoint x="407" y="1540" />
            </Array>
          </mxGeometry>
        </mxCell>
        <mxCell id="vG_-hnopXsJ-OyCV_dhs-22" value="colocar roupas mais leves" style="rounded=1;whiteSpace=wrap;html=1;" vertex="1" parent="1">
          <mxGeometry x="540" y="1450" width="120" height="60" as="geometry" />
        </mxCell>
        <mxCell id="vG_-hnopXsJ-OyCV_dhs-36" style="edgeStyle=orthogonalEdgeStyle;rounded=0;orthogonalLoop=1;jettySize=auto;html=1;entryX=0;entryY=0.5;entryDx=0;entryDy=0;" edge="1" parent="1" source="vG_-hnopXsJ-OyCV_dhs-31" target="vG_-hnopXsJ-OyCV_dhs-35">
          <mxGeometry relative="1" as="geometry" />
        </mxCell>
        <mxCell id="vG_-hnopXsJ-OyCV_dhs-37" value="SIM" style="edgeLabel;html=1;align=center;verticalAlign=middle;resizable=0;points=[];" connectable="0" vertex="1" parent="vG_-hnopXsJ-OyCV_dhs-36">
          <mxGeometry x="-0.0361" y="1" relative="1" as="geometry">
            <mxPoint as="offset" />
          </mxGeometry>
        </mxCell>
        <mxCell id="vG_-hnopXsJ-OyCV_dhs-39" style="edgeStyle=orthogonalEdgeStyle;rounded=0;orthogonalLoop=1;jettySize=auto;html=1;entryX=0.5;entryY=0;entryDx=0;entryDy=0;" edge="1" parent="1" source="vG_-hnopXsJ-OyCV_dhs-31" target="vG_-hnopXsJ-OyCV_dhs-38">
          <mxGeometry relative="1" as="geometry" />
        </mxCell>
        <mxCell id="vG_-hnopXsJ-OyCV_dhs-40" value="NÃO" style="edgeLabel;html=1;align=center;verticalAlign=middle;resizable=0;points=[];" connectable="0" vertex="1" parent="vG_-hnopXsJ-OyCV_dhs-39">
          <mxGeometry x="-0.0286" y="1" relative="1" as="geometry">
            <mxPoint as="offset" />
          </mxGeometry>
        </mxCell>
        <mxCell id="vG_-hnopXsJ-OyCV_dhs-31" value="Está chovendo&amp;nbsp;" style="rhombus;whiteSpace=wrap;html=1;" vertex="1" parent="1">
          <mxGeometry x="357" y="1580" width="100" height="90" as="geometry" />
        </mxCell>
        <mxCell id="vG_-hnopXsJ-OyCV_dhs-35" value="pegue um guarda-chuva" style="rounded=0;whiteSpace=wrap;html=1;" vertex="1" parent="1">
          <mxGeometry x="540" y="1595" width="120" height="60" as="geometry" />
        </mxCell>
        <mxCell id="vG_-hnopXsJ-OyCV_dhs-38" value="fim" style="ellipse;whiteSpace=wrap;html=1;" vertex="1" parent="1">
          <mxGeometry x="347" y="1740" width="120" height="80" as="geometry" />
        </mxCell>
        <mxCell id="vG_-hnopXsJ-OyCV_dhs-74" style="edgeStyle=orthogonalEdgeStyle;rounded=0;orthogonalLoop=1;jettySize=auto;html=1;entryX=0.5;entryY=0;entryDx=0;entryDy=0;" edge="1" parent="1" source="vG_-hnopXsJ-OyCV_dhs-41" target="vG_-hnopXsJ-OyCV_dhs-42">
          <mxGeometry relative="1" as="geometry" />
        </mxCell>
        <mxCell id="vG_-hnopXsJ-OyCV_dhs-41" value="inicio" style="ellipse;whiteSpace=wrap;html=1;" vertex="1" parent="1">
          <mxGeometry x="343" y="2380" width="120" height="80" as="geometry" />
        </mxCell>
        <mxCell id="vG_-hnopXsJ-OyCV_dhs-76" style="edgeStyle=orthogonalEdgeStyle;rounded=0;orthogonalLoop=1;jettySize=auto;html=1;entryX=0.5;entryY=0;entryDx=0;entryDy=0;" edge="1" parent="1" source="vG_-hnopXsJ-OyCV_dhs-42" target="vG_-hnopXsJ-OyCV_dhs-43">
          <mxGeometry relative="1" as="geometry" />
        </mxCell>
        <mxCell id="vG_-hnopXsJ-OyCV_dhs-42" value="receba o valor" style="shape=document;whiteSpace=wrap;html=1;boundedLbl=1;" vertex="1" parent="1">
          <mxGeometry x="343" y="2500" width="120" height="80" as="geometry" />
        </mxCell>
        <mxCell id="vG_-hnopXsJ-OyCV_dhs-78" style="edgeStyle=orthogonalEdgeStyle;rounded=0;orthogonalLoop=1;jettySize=auto;html=1;entryX=0.5;entryY=0;entryDx=0;entryDy=0;" edge="1" parent="1" source="vG_-hnopXsJ-OyCV_dhs-43" target="vG_-hnopXsJ-OyCV_dhs-77">
          <mxGeometry relative="1" as="geometry" />
        </mxCell>
        <mxCell id="vG_-hnopXsJ-OyCV_dhs-43" value="guarde na variável t" style="rounded=1;whiteSpace=wrap;html=1;" vertex="1" parent="1">
          <mxGeometry x="337" y="2610" width="120" height="60" as="geometry" />
        </mxCell>
        <mxCell id="vG_-hnopXsJ-OyCV_dhs-48" style="edgeStyle=orthogonalEdgeStyle;rounded=0;orthogonalLoop=1;jettySize=auto;html=1;entryX=1;entryY=0.5;entryDx=0;entryDy=0;" edge="1" parent="1" source="vG_-hnopXsJ-OyCV_dhs-46" target="vG_-hnopXsJ-OyCV_dhs-47">
          <mxGeometry relative="1" as="geometry" />
        </mxCell>
        <mxCell id="vG_-hnopXsJ-OyCV_dhs-50" value="SIM" style="edgeLabel;html=1;align=center;verticalAlign=middle;resizable=0;points=[];" connectable="0" vertex="1" parent="vG_-hnopXsJ-OyCV_dhs-48">
          <mxGeometry x="-0.1398" y="4" relative="1" as="geometry">
            <mxPoint as="offset" />
          </mxGeometry>
        </mxCell>
        <mxCell id="vG_-hnopXsJ-OyCV_dhs-46" value="t &amp;lt;= 60" style="rhombus;whiteSpace=wrap;html=1;" vertex="1" parent="1">
          <mxGeometry x="357" y="2780" width="80" height="80" as="geometry" />
        </mxCell>
        <mxCell id="vG_-hnopXsJ-OyCV_dhs-89" style="edgeStyle=orthogonalEdgeStyle;rounded=0;orthogonalLoop=1;jettySize=auto;html=1;entryX=0.425;entryY=1.038;entryDx=0;entryDy=0;entryPerimeter=0;" edge="1" parent="1" source="vG_-hnopXsJ-OyCV_dhs-47" target="vG_-hnopXsJ-OyCV_dhs-86">
          <mxGeometry relative="1" as="geometry">
            <mxPoint x="70" y="3010" as="targetPoint" />
            <Array as="points">
              <mxPoint x="70" y="2893" />
              <mxPoint x="70" y="3420" />
              <mxPoint x="341" y="3420" />
            </Array>
          </mxGeometry>
        </mxCell>
        <mxCell id="vG_-hnopXsJ-OyCV_dhs-47" value="pagar 15 reais" style="rounded=1;whiteSpace=wrap;html=1;" vertex="1" parent="1">
          <mxGeometry x="150" y="2863" width="120" height="60" as="geometry" />
        </mxCell>
        <mxCell id="vG_-hnopXsJ-OyCV_dhs-52" style="edgeStyle=orthogonalEdgeStyle;rounded=0;orthogonalLoop=1;jettySize=auto;html=1;entryX=0.5;entryY=0;entryDx=0;entryDy=0;" edge="1" parent="1" source="vG_-hnopXsJ-OyCV_dhs-46" target="vG_-hnopXsJ-OyCV_dhs-59">
          <mxGeometry relative="1" as="geometry">
            <mxPoint x="403" y="2850.04" as="targetPoint" />
          </mxGeometry>
        </mxCell>
        <mxCell id="vG_-hnopXsJ-OyCV_dhs-53" value="NÃO" style="edgeLabel;html=1;align=center;verticalAlign=middle;resizable=0;points=[];" connectable="0" vertex="1" parent="vG_-hnopXsJ-OyCV_dhs-52">
          <mxGeometry x="-0.0673" y="-1" relative="1" as="geometry">
            <mxPoint as="offset" />
          </mxGeometry>
        </mxCell>
        <mxCell id="vG_-hnopXsJ-OyCV_dhs-58" style="edgeStyle=orthogonalEdgeStyle;rounded=0;orthogonalLoop=1;jettySize=auto;html=1;entryX=1;entryY=0.5;entryDx=0;entryDy=0;" edge="1" parent="1" source="vG_-hnopXsJ-OyCV_dhs-54" target="vG_-hnopXsJ-OyCV_dhs-55">
          <mxGeometry relative="1" as="geometry" />
        </mxCell>
        <mxCell id="vG_-hnopXsJ-OyCV_dhs-54" value="digite o valor em minutos guarde em n" style="rounded=1;whiteSpace=wrap;html=1;" vertex="1" parent="1">
          <mxGeometry x="337" y="3040" width="120" height="60" as="geometry" />
        </mxCell>
        <mxCell id="vG_-hnopXsJ-OyCV_dhs-57" style="edgeStyle=orthogonalEdgeStyle;rounded=0;orthogonalLoop=1;jettySize=auto;html=1;entryX=0.5;entryY=0;entryDx=0;entryDy=0;" edge="1" parent="1" source="vG_-hnopXsJ-OyCV_dhs-55" target="vG_-hnopXsJ-OyCV_dhs-56">
          <mxGeometry relative="1" as="geometry" />
        </mxCell>
        <mxCell id="vG_-hnopXsJ-OyCV_dhs-55" value="3*n + 15 = valor total" style="rounded=1;whiteSpace=wrap;html=1;" vertex="1" parent="1">
          <mxGeometry x="150" y="2940" width="120" height="60" as="geometry" />
        </mxCell>
        <mxCell id="vG_-hnopXsJ-OyCV_dhs-87" style="edgeStyle=orthogonalEdgeStyle;rounded=0;orthogonalLoop=1;jettySize=auto;html=1;entryX=0;entryY=0.5;entryDx=0;entryDy=0;" edge="1" parent="1" source="vG_-hnopXsJ-OyCV_dhs-56" target="vG_-hnopXsJ-OyCV_dhs-86">
          <mxGeometry relative="1" as="geometry">
            <Array as="points">
              <mxPoint x="190" y="3280" />
            </Array>
          </mxGeometry>
        </mxCell>
        <mxCell id="vG_-hnopXsJ-OyCV_dhs-56" value="exiba o valor total" style="rounded=1;whiteSpace=wrap;html=1;" vertex="1" parent="1">
          <mxGeometry x="150" y="3050" width="120" height="60" as="geometry" />
        </mxCell>
        <mxCell id="vG_-hnopXsJ-OyCV_dhs-60" value="SIM" style="edgeStyle=orthogonalEdgeStyle;rounded=0;orthogonalLoop=1;jettySize=auto;html=1;entryX=0.5;entryY=0;entryDx=0;entryDy=0;" edge="1" parent="1" source="vG_-hnopXsJ-OyCV_dhs-59" target="vG_-hnopXsJ-OyCV_dhs-54">
          <mxGeometry relative="1" as="geometry" />
        </mxCell>
        <mxCell id="vG_-hnopXsJ-OyCV_dhs-66" style="edgeStyle=orthogonalEdgeStyle;rounded=0;orthogonalLoop=1;jettySize=auto;html=1;entryX=0;entryY=0.5;entryDx=0;entryDy=0;" edge="1" parent="1" source="vG_-hnopXsJ-OyCV_dhs-59" target="vG_-hnopXsJ-OyCV_dhs-65">
          <mxGeometry relative="1" as="geometry" />
        </mxCell>
        <mxCell id="vG_-hnopXsJ-OyCV_dhs-67" value="NÃO" style="edgeLabel;html=1;align=center;verticalAlign=middle;resizable=0;points=[];" connectable="0" vertex="1" parent="vG_-hnopXsJ-OyCV_dhs-66">
          <mxGeometry x="0.2688" y="-2" relative="1" as="geometry">
            <mxPoint as="offset" />
          </mxGeometry>
        </mxCell>
        <mxCell id="vG_-hnopXsJ-OyCV_dhs-59" value="t &amp;lt;= 360" style="rhombus;whiteSpace=wrap;html=1;" vertex="1" parent="1">
          <mxGeometry x="357" y="2910" width="80" height="80" as="geometry" />
        </mxCell>
        <mxCell id="vG_-hnopXsJ-OyCV_dhs-69" style="edgeStyle=orthogonalEdgeStyle;rounded=0;orthogonalLoop=1;jettySize=auto;html=1;entryX=0;entryY=0.5;entryDx=0;entryDy=0;" edge="1" parent="1" source="vG_-hnopXsJ-OyCV_dhs-65" target="vG_-hnopXsJ-OyCV_dhs-68">
          <mxGeometry relative="1" as="geometry" />
        </mxCell>
        <mxCell id="vG_-hnopXsJ-OyCV_dhs-70" value="SIM" style="edgeLabel;html=1;align=center;verticalAlign=middle;resizable=0;points=[];" connectable="0" vertex="1" parent="vG_-hnopXsJ-OyCV_dhs-69">
          <mxGeometry x="-0.24" y="-1" relative="1" as="geometry">
            <mxPoint as="offset" />
          </mxGeometry>
        </mxCell>
        <mxCell id="vG_-hnopXsJ-OyCV_dhs-81" style="edgeStyle=orthogonalEdgeStyle;rounded=0;orthogonalLoop=1;jettySize=auto;html=1;entryX=0.5;entryY=0;entryDx=0;entryDy=0;" edge="1" parent="1" source="vG_-hnopXsJ-OyCV_dhs-65" target="vG_-hnopXsJ-OyCV_dhs-80">
          <mxGeometry relative="1" as="geometry" />
        </mxCell>
        <mxCell id="vG_-hnopXsJ-OyCV_dhs-65" value="t &amp;lt;= 1440" style="rhombus;whiteSpace=wrap;html=1;" vertex="1" parent="1">
          <mxGeometry x="530" y="2910" width="80" height="80" as="geometry" />
        </mxCell>
        <mxCell id="vG_-hnopXsJ-OyCV_dhs-68" value="pagar 30 reais" style="rounded=1;whiteSpace=wrap;html=1;" vertex="1" parent="1">
          <mxGeometry x="660" y="2920" width="120" height="60" as="geometry" />
        </mxCell>
        <mxCell id="vG_-hnopXsJ-OyCV_dhs-79" style="edgeStyle=orthogonalEdgeStyle;rounded=0;orthogonalLoop=1;jettySize=auto;html=1;entryX=0.5;entryY=0;entryDx=0;entryDy=0;" edge="1" parent="1" source="vG_-hnopXsJ-OyCV_dhs-77" target="vG_-hnopXsJ-OyCV_dhs-46">
          <mxGeometry relative="1" as="geometry" />
        </mxCell>
        <mxCell id="vG_-hnopXsJ-OyCV_dhs-77" value="faça t*60" style="rounded=1;whiteSpace=wrap;html=1;" vertex="1" parent="1">
          <mxGeometry x="337" y="2690" width="120" height="60" as="geometry" />
        </mxCell>
        <mxCell id="vG_-hnopXsJ-OyCV_dhs-83" style="edgeStyle=orthogonalEdgeStyle;rounded=0;orthogonalLoop=1;jettySize=auto;html=1;entryX=0.5;entryY=0;entryDx=0;entryDy=0;" edge="1" parent="1" source="vG_-hnopXsJ-OyCV_dhs-80" target="vG_-hnopXsJ-OyCV_dhs-82">
          <mxGeometry relative="1" as="geometry" />
        </mxCell>
        <mxCell id="vG_-hnopXsJ-OyCV_dhs-80" value="digite o valor em minutos guarde em n" style="rounded=1;whiteSpace=wrap;html=1;" vertex="1" parent="1">
          <mxGeometry x="510" y="3040" width="120" height="60" as="geometry" />
        </mxCell>
        <mxCell id="vG_-hnopXsJ-OyCV_dhs-85" style="edgeStyle=orthogonalEdgeStyle;rounded=0;orthogonalLoop=1;jettySize=auto;html=1;entryX=0.5;entryY=0;entryDx=0;entryDy=0;" edge="1" parent="1" source="vG_-hnopXsJ-OyCV_dhs-82" target="vG_-hnopXsJ-OyCV_dhs-84">
          <mxGeometry relative="1" as="geometry" />
        </mxCell>
        <mxCell id="vG_-hnopXsJ-OyCV_dhs-82" value="3*n + 30 = valor total" style="rounded=1;whiteSpace=wrap;html=1;" vertex="1" parent="1">
          <mxGeometry x="510" y="3130" width="120" height="60" as="geometry" />
        </mxCell>
        <mxCell id="vG_-hnopXsJ-OyCV_dhs-88" style="edgeStyle=orthogonalEdgeStyle;rounded=0;orthogonalLoop=1;jettySize=auto;html=1;entryX=0.5;entryY=0;entryDx=0;entryDy=0;" edge="1" parent="1" source="vG_-hnopXsJ-OyCV_dhs-84" target="vG_-hnopXsJ-OyCV_dhs-86">
          <mxGeometry relative="1" as="geometry" />
        </mxCell>
        <mxCell id="vG_-hnopXsJ-OyCV_dhs-84" value="exiba o valor total" style="rounded=1;whiteSpace=wrap;html=1;" vertex="1" parent="1">
          <mxGeometry x="510" y="3220" width="120" height="60" as="geometry" />
        </mxCell>
        <mxCell id="vG_-hnopXsJ-OyCV_dhs-86" value="fim" style="ellipse;whiteSpace=wrap;html=1;" vertex="1" parent="1">
          <mxGeometry x="290" y="3240" width="120" height="80" as="geometry" />
        </mxCell>
        <mxCell id="vG_-hnopXsJ-OyCV_dhs-95" style="edgeStyle=orthogonalEdgeStyle;rounded=0;orthogonalLoop=1;jettySize=auto;html=1;entryX=0.5;entryY=0;entryDx=0;entryDy=0;" edge="1" parent="1" source="vG_-hnopXsJ-OyCV_dhs-90" target="vG_-hnopXsJ-OyCV_dhs-91">
          <mxGeometry relative="1" as="geometry" />
        </mxCell>
        <mxCell id="vG_-hnopXsJ-OyCV_dhs-90" value="inicio" style="ellipse;whiteSpace=wrap;html=1;" vertex="1" parent="1">
          <mxGeometry x="320" y="3560" width="120" height="80" as="geometry" />
        </mxCell>
        <mxCell id="vG_-hnopXsJ-OyCV_dhs-96" style="edgeStyle=orthogonalEdgeStyle;rounded=0;orthogonalLoop=1;jettySize=auto;html=1;entryX=0.5;entryY=0;entryDx=0;entryDy=0;" edge="1" parent="1" source="vG_-hnopXsJ-OyCV_dhs-91" target="vG_-hnopXsJ-OyCV_dhs-92">
          <mxGeometry relative="1" as="geometry" />
        </mxCell>
        <mxCell id="vG_-hnopXsJ-OyCV_dhs-91" value="digite o nome" style="rounded=1;whiteSpace=wrap;html=1;" vertex="1" parent="1">
          <mxGeometry x="320" y="3680" width="120" height="60" as="geometry" />
        </mxCell>
        <mxCell id="vG_-hnopXsJ-OyCV_dhs-97" style="edgeStyle=orthogonalEdgeStyle;rounded=0;orthogonalLoop=1;jettySize=auto;html=1;entryX=0.5;entryY=0;entryDx=0;entryDy=0;" edge="1" parent="1" source="vG_-hnopXsJ-OyCV_dhs-92" target="vG_-hnopXsJ-OyCV_dhs-93">
          <mxGeometry relative="1" as="geometry" />
        </mxCell>
        <mxCell id="vG_-hnopXsJ-OyCV_dhs-92" value="receba" style="shape=document;whiteSpace=wrap;html=1;boundedLbl=1;" vertex="1" parent="1">
          <mxGeometry x="320" y="3780" width="120" height="80" as="geometry" />
        </mxCell>
        <mxCell id="vG_-hnopXsJ-OyCV_dhs-98" style="edgeStyle=orthogonalEdgeStyle;rounded=0;orthogonalLoop=1;jettySize=auto;html=1;entryX=0.5;entryY=0;entryDx=0;entryDy=0;" edge="1" parent="1" source="vG_-hnopXsJ-OyCV_dhs-93" target="vG_-hnopXsJ-OyCV_dhs-94">
          <mxGeometry relative="1" as="geometry" />
        </mxCell>
        <mxCell id="vG_-hnopXsJ-OyCV_dhs-93" value="guarde na variável n" style="rounded=1;whiteSpace=wrap;html=1;" vertex="1" parent="1">
          <mxGeometry x="320" y="3900" width="120" height="60" as="geometry" />
        </mxCell>
        <mxCell id="vG_-hnopXsJ-OyCV_dhs-94" value="exina &quot;Olá&quot; + n" style="rounded=1;whiteSpace=wrap;html=1;" vertex="1" parent="1">
          <mxGeometry x="320" y="3990" width="120" height="60" as="geometry" />
        </mxCell>
        <mxCell id="vG_-hnopXsJ-OyCV_dhs-99" value="&lt;font style=&quot;font-size: 18px;&quot;&gt;&lt;b&gt;ESTACIONAMENTO&lt;/b&gt;&lt;/font&gt;" style="text;html=1;align=center;verticalAlign=middle;whiteSpace=wrap;rounded=0;" vertex="1" parent="1">
          <mxGeometry x="590" y="2390" width="170" height="30" as="geometry" />
        </mxCell>
        <mxCell id="vG_-hnopXsJ-OyCV_dhs-100" value="&lt;font style=&quot;font-size: 18px;&quot;&gt;&lt;b&gt;ROUPAS&lt;/b&gt;&lt;/font&gt;" style="text;html=1;align=center;verticalAlign=middle;whiteSpace=wrap;rounded=0;" vertex="1" parent="1">
          <mxGeometry x="600" y="1200" width="170" height="30" as="geometry" />
        </mxCell>
        <mxCell id="vG_-hnopXsJ-OyCV_dhs-101" value="&lt;font style=&quot;font-size: 18px;&quot;&gt;&lt;b&gt;CAFÉ&lt;/b&gt;&lt;/font&gt;" style="text;html=1;align=center;verticalAlign=middle;whiteSpace=wrap;rounded=0;" vertex="1" parent="1">
          <mxGeometry x="590" y="35" width="170" height="30" as="geometry" />
        </mxCell>
        <mxCell id="vG_-hnopXsJ-OyCV_dhs-102" value="&lt;font style=&quot;font-size: 18px;&quot;&gt;&lt;b&gt;SAUDAÇÕES&lt;/b&gt;&lt;/font&gt;" style="text;html=1;align=center;verticalAlign=middle;whiteSpace=wrap;rounded=0;" vertex="1" parent="1">
          <mxGeometry x="560" y="3540" width="170" height="30" as="geometry" />
        </mxCell>
        <mxCell id="vG_-hnopXsJ-OyCV_dhs-103" value="&lt;span style=&quot;font-size: 18px;&quot;&gt;&lt;b&gt;PAR OU IMPAR&lt;/b&gt;&lt;/span&gt;" style="text;html=1;align=center;verticalAlign=middle;whiteSpace=wrap;rounded=0;" vertex="1" parent="1">
          <mxGeometry x="300" y="4700" width="170" height="30" as="geometry" />
        </mxCell>
        <mxCell id="vG_-hnopXsJ-OyCV_dhs-106" style="edgeStyle=orthogonalEdgeStyle;rounded=0;orthogonalLoop=1;jettySize=auto;html=1;entryX=0.5;entryY=0;entryDx=0;entryDy=0;" edge="1" parent="1" source="vG_-hnopXsJ-OyCV_dhs-104" target="vG_-hnopXsJ-OyCV_dhs-105">
          <mxGeometry relative="1" as="geometry" />
        </mxCell>
        <mxCell id="vG_-hnopXsJ-OyCV_dhs-104" value="inicio" style="ellipse;whiteSpace=wrap;html=1;" vertex="1" parent="1">
          <mxGeometry x="317" y="4780" width="120" height="80" as="geometry" />
        </mxCell>
        <mxCell id="vG_-hnopXsJ-OyCV_dhs-108" style="edgeStyle=orthogonalEdgeStyle;rounded=0;orthogonalLoop=1;jettySize=auto;html=1;entryX=0.5;entryY=0;entryDx=0;entryDy=0;" edge="1" parent="1" source="vG_-hnopXsJ-OyCV_dhs-105" target="vG_-hnopXsJ-OyCV_dhs-107">
          <mxGeometry relative="1" as="geometry" />
        </mxCell>
        <mxCell id="vG_-hnopXsJ-OyCV_dhs-105" value="digite um numero" style="rounded=1;whiteSpace=wrap;html=1;" vertex="1" parent="1">
          <mxGeometry x="317" y="4900" width="120" height="60" as="geometry" />
        </mxCell>
        <mxCell id="vG_-hnopXsJ-OyCV_dhs-110" style="edgeStyle=orthogonalEdgeStyle;rounded=0;orthogonalLoop=1;jettySize=auto;html=1;" edge="1" parent="1" source="vG_-hnopXsJ-OyCV_dhs-107" target="vG_-hnopXsJ-OyCV_dhs-109">
          <mxGeometry relative="1" as="geometry" />
        </mxCell>
        <mxCell id="vG_-hnopXsJ-OyCV_dhs-107" value="guarde na variável n" style="shape=document;whiteSpace=wrap;html=1;boundedLbl=1;" vertex="1" parent="1">
          <mxGeometry x="317" y="5010" width="120" height="80" as="geometry" />
        </mxCell>
        <mxCell id="vG_-hnopXsJ-OyCV_dhs-113" style="edgeStyle=orthogonalEdgeStyle;rounded=0;orthogonalLoop=1;jettySize=auto;html=1;entryX=0;entryY=0.5;entryDx=0;entryDy=0;" edge="1" parent="1" source="vG_-hnopXsJ-OyCV_dhs-109" target="vG_-hnopXsJ-OyCV_dhs-112">
          <mxGeometry relative="1" as="geometry" />
        </mxCell>
        <mxCell id="vG_-hnopXsJ-OyCV_dhs-116" value="NÃO" style="edgeLabel;html=1;align=center;verticalAlign=middle;resizable=0;points=[];" connectable="0" vertex="1" parent="vG_-hnopXsJ-OyCV_dhs-113">
          <mxGeometry x="-0.1356" y="2" relative="1" as="geometry">
            <mxPoint as="offset" />
          </mxGeometry>
        </mxCell>
        <mxCell id="vG_-hnopXsJ-OyCV_dhs-114" style="edgeStyle=orthogonalEdgeStyle;rounded=0;orthogonalLoop=1;jettySize=auto;html=1;entryX=1;entryY=0.5;entryDx=0;entryDy=0;" edge="1" parent="1" source="vG_-hnopXsJ-OyCV_dhs-109" target="vG_-hnopXsJ-OyCV_dhs-111">
          <mxGeometry relative="1" as="geometry" />
        </mxCell>
        <mxCell id="vG_-hnopXsJ-OyCV_dhs-117" value="SIM" style="edgeLabel;html=1;align=center;verticalAlign=middle;resizable=0;points=[];" connectable="0" vertex="1" parent="vG_-hnopXsJ-OyCV_dhs-114">
          <mxGeometry x="-0.0488" y="-3" relative="1" as="geometry">
            <mxPoint as="offset" />
          </mxGeometry>
        </mxCell>
        <mxCell id="vG_-hnopXsJ-OyCV_dhs-109" value="n * 2 ?" style="rhombus;whiteSpace=wrap;html=1;" vertex="1" parent="1">
          <mxGeometry x="322" y="5130" width="110" height="110" as="geometry" />
        </mxCell>
        <mxCell id="vG_-hnopXsJ-OyCV_dhs-118" style="edgeStyle=orthogonalEdgeStyle;rounded=0;orthogonalLoop=1;jettySize=auto;html=1;entryX=0;entryY=0.5;entryDx=0;entryDy=0;" edge="1" parent="1" source="vG_-hnopXsJ-OyCV_dhs-111" target="vG_-hnopXsJ-OyCV_dhs-115">
          <mxGeometry relative="1" as="geometry">
            <Array as="points">
              <mxPoint x="180" y="5360" />
            </Array>
          </mxGeometry>
        </mxCell>
        <mxCell id="vG_-hnopXsJ-OyCV_dhs-111" value="exina numero par" style="rounded=1;whiteSpace=wrap;html=1;" vertex="1" parent="1">
          <mxGeometry x="120" y="5155" width="120" height="60" as="geometry" />
        </mxCell>
        <mxCell id="vG_-hnopXsJ-OyCV_dhs-119" style="edgeStyle=orthogonalEdgeStyle;rounded=0;orthogonalLoop=1;jettySize=auto;html=1;entryX=1;entryY=0.5;entryDx=0;entryDy=0;" edge="1" parent="1" source="vG_-hnopXsJ-OyCV_dhs-112" target="vG_-hnopXsJ-OyCV_dhs-115">
          <mxGeometry relative="1" as="geometry">
            <Array as="points">
              <mxPoint x="610" y="5360" />
            </Array>
          </mxGeometry>
        </mxCell>
        <mxCell id="vG_-hnopXsJ-OyCV_dhs-112" value="exiba numero impar" style="rounded=1;whiteSpace=wrap;html=1;" vertex="1" parent="1">
          <mxGeometry x="550" y="5155" width="120" height="60" as="geometry" />
        </mxCell>
        <mxCell id="vG_-hnopXsJ-OyCV_dhs-115" value="fim" style="ellipse;whiteSpace=wrap;html=1;" vertex="1" parent="1">
          <mxGeometry x="322" y="5320" width="120" height="80" as="geometry" />
        </mxCell>
        <mxCell id="vG_-hnopXsJ-OyCV_dhs-120" value="&lt;span style=&quot;font-size: 18px;&quot;&gt;&lt;b&gt;QUAL NUMERO É MAIOR&lt;/b&gt;&lt;/span&gt;" style="text;html=1;align=center;verticalAlign=middle;whiteSpace=wrap;rounded=0;" vertex="1" parent="1">
          <mxGeometry x="310" y="5900" width="170" height="30" as="geometry" />
        </mxCell>
        <mxCell id="vG_-hnopXsJ-OyCV_dhs-127" style="edgeStyle=orthogonalEdgeStyle;rounded=0;orthogonalLoop=1;jettySize=auto;html=1;entryX=0.5;entryY=0;entryDx=0;entryDy=0;" edge="1" parent="1" source="vG_-hnopXsJ-OyCV_dhs-121" target="vG_-hnopXsJ-OyCV_dhs-124">
          <mxGeometry relative="1" as="geometry" />
        </mxCell>
        <mxCell id="vG_-hnopXsJ-OyCV_dhs-121" value="inicio" style="ellipse;whiteSpace=wrap;html=1;" vertex="1" parent="1">
          <mxGeometry x="325" y="5970" width="120" height="80" as="geometry" />
        </mxCell>
        <mxCell id="vG_-hnopXsJ-OyCV_dhs-129" style="edgeStyle=orthogonalEdgeStyle;rounded=0;orthogonalLoop=1;jettySize=auto;html=1;entryX=0.5;entryY=0;entryDx=0;entryDy=0;" edge="1" parent="1" source="vG_-hnopXsJ-OyCV_dhs-122" target="vG_-hnopXsJ-OyCV_dhs-125">
          <mxGeometry relative="1" as="geometry" />
        </mxCell>
        <mxCell id="vG_-hnopXsJ-OyCV_dhs-122" value="guarde na variável num1" style="rounded=1;whiteSpace=wrap;html=1;" vertex="1" parent="1">
          <mxGeometry x="325" y="6190" width="120" height="40" as="geometry" />
        </mxCell>
        <mxCell id="vG_-hnopXsJ-OyCV_dhs-128" style="edgeStyle=orthogonalEdgeStyle;rounded=0;orthogonalLoop=1;jettySize=auto;html=1;entryX=0.5;entryY=0;entryDx=0;entryDy=0;" edge="1" parent="1" source="vG_-hnopXsJ-OyCV_dhs-124" target="vG_-hnopXsJ-OyCV_dhs-122">
          <mxGeometry relative="1" as="geometry" />
        </mxCell>
        <mxCell id="vG_-hnopXsJ-OyCV_dhs-124" value="receba um numero" style="shape=document;whiteSpace=wrap;html=1;boundedLbl=1;" vertex="1" parent="1">
          <mxGeometry x="325" y="6080" width="120" height="80" as="geometry" />
        </mxCell>
        <mxCell id="vG_-hnopXsJ-OyCV_dhs-130" style="edgeStyle=orthogonalEdgeStyle;rounded=0;orthogonalLoop=1;jettySize=auto;html=1;" edge="1" parent="1" source="vG_-hnopXsJ-OyCV_dhs-125">
          <mxGeometry relative="1" as="geometry">
            <mxPoint x="385" y="6370" as="targetPoint" />
          </mxGeometry>
        </mxCell>
        <mxCell id="vG_-hnopXsJ-OyCV_dhs-125" value="receba um numero" style="shape=document;whiteSpace=wrap;html=1;boundedLbl=1;" vertex="1" parent="1">
          <mxGeometry x="325" y="6260" width="120" height="80" as="geometry" />
        </mxCell>
        <mxCell id="vG_-hnopXsJ-OyCV_dhs-132" style="edgeStyle=orthogonalEdgeStyle;rounded=0;orthogonalLoop=1;jettySize=auto;html=1;entryX=0.5;entryY=0;entryDx=0;entryDy=0;" edge="1" parent="1" source="vG_-hnopXsJ-OyCV_dhs-126" target="vG_-hnopXsJ-OyCV_dhs-131">
          <mxGeometry relative="1" as="geometry" />
        </mxCell>
        <mxCell id="vG_-hnopXsJ-OyCV_dhs-126" value="guarde na variável num2" style="rounded=1;whiteSpace=wrap;html=1;" vertex="1" parent="1">
          <mxGeometry x="325" y="6380" width="120" height="60" as="geometry" />
        </mxCell>
        <mxCell id="vG_-hnopXsJ-OyCV_dhs-135" style="edgeStyle=orthogonalEdgeStyle;rounded=0;orthogonalLoop=1;jettySize=auto;html=1;entryX=1;entryY=0.5;entryDx=0;entryDy=0;" edge="1" parent="1" source="vG_-hnopXsJ-OyCV_dhs-131" target="vG_-hnopXsJ-OyCV_dhs-133">
          <mxGeometry relative="1" as="geometry" />
        </mxCell>
        <mxCell id="vG_-hnopXsJ-OyCV_dhs-136" value="SIM" style="edgeLabel;html=1;align=center;verticalAlign=middle;resizable=0;points=[];" connectable="0" vertex="1" parent="vG_-hnopXsJ-OyCV_dhs-135">
          <mxGeometry x="0.0675" y="6" relative="1" as="geometry">
            <mxPoint x="1" as="offset" />
          </mxGeometry>
        </mxCell>
        <mxCell id="vG_-hnopXsJ-OyCV_dhs-137" style="edgeStyle=orthogonalEdgeStyle;rounded=0;orthogonalLoop=1;jettySize=auto;html=1;entryX=0;entryY=0.5;entryDx=0;entryDy=0;" edge="1" parent="1" source="vG_-hnopXsJ-OyCV_dhs-131" target="vG_-hnopXsJ-OyCV_dhs-134">
          <mxGeometry relative="1" as="geometry" />
        </mxCell>
        <mxCell id="vG_-hnopXsJ-OyCV_dhs-138" value="NÃO" style="edgeLabel;html=1;align=center;verticalAlign=middle;resizable=0;points=[];" connectable="0" vertex="1" parent="vG_-hnopXsJ-OyCV_dhs-137">
          <mxGeometry x="0.1049" y="-5" relative="1" as="geometry">
            <mxPoint as="offset" />
          </mxGeometry>
        </mxCell>
        <mxCell id="vG_-hnopXsJ-OyCV_dhs-131" value="num1 &amp;gt; num2" style="rhombus;whiteSpace=wrap;html=1;" vertex="1" parent="1">
          <mxGeometry x="341.5" y="6510" width="87" height="100" as="geometry" />
        </mxCell>
        <mxCell id="vG_-hnopXsJ-OyCV_dhs-140" style="edgeStyle=orthogonalEdgeStyle;rounded=0;orthogonalLoop=1;jettySize=auto;html=1;entryX=0;entryY=0.5;entryDx=0;entryDy=0;" edge="1" parent="1" source="vG_-hnopXsJ-OyCV_dhs-133" target="vG_-hnopXsJ-OyCV_dhs-139">
          <mxGeometry relative="1" as="geometry">
            <Array as="points">
              <mxPoint x="200" y="6720" />
            </Array>
          </mxGeometry>
        </mxCell>
        <mxCell id="vG_-hnopXsJ-OyCV_dhs-133" value="numero 1&amp;nbsp;&lt;span style=&quot;color: rgba(0, 0, 0, 0); font-family: monospace; font-size: 0px; text-align: start; text-wrap-mode: nowrap;&quot;&gt;%3CmxGraphModel%3E%3Croot%3E%3CmxCell%20id%3D%220%22%2F%3E%3CmxCell%20id%3D%221%22%20parent%3D%220%22%2F%3E%3CmxCell%20id%3D%222%22%20value%3D%22guarde%20na%20vari%C3%A1vel%20num1%22%20style%3D%22rounded%3D1%3BwhiteSpace%3Dwrap%3Bhtml%3D1%3B%22%20vertex%3D%221%22%20parent%3D%221%22%3E%3CmxGeometry%20x%3D%22325%22%20y%3D%226200%22%20width%3D%22120%22%20height%3D%2260%22%20as%3D%22geometry%22%2F%3E%3C%2FmxCell%3E%3C%2Froot%3E%3C%2FmxGraphModel%3E&lt;/span&gt;maior que numero 2" style="rounded=1;whiteSpace=wrap;html=1;" vertex="1" parent="1">
          <mxGeometry x="140" y="6530" width="120" height="60" as="geometry" />
        </mxCell>
        <mxCell id="vG_-hnopXsJ-OyCV_dhs-141" style="edgeStyle=orthogonalEdgeStyle;rounded=0;orthogonalLoop=1;jettySize=auto;html=1;entryX=1;entryY=0.5;entryDx=0;entryDy=0;" edge="1" parent="1" source="vG_-hnopXsJ-OyCV_dhs-134" target="vG_-hnopXsJ-OyCV_dhs-139">
          <mxGeometry relative="1" as="geometry">
            <Array as="points">
              <mxPoint x="560" y="6720" />
            </Array>
          </mxGeometry>
        </mxCell>
        <mxCell id="vG_-hnopXsJ-OyCV_dhs-134" value="numero 2&amp;nbsp;&lt;span style=&quot;color: rgba(0, 0, 0, 0); font-family: monospace; font-size: 0px; text-align: start; text-wrap-mode: nowrap;&quot;&gt;%3CmxGraphModel%3E%3Croot%3E%3CmxCell%20id%3D%220%22%2F%3E%3CmxCell%20id%3D%221%22%20parent%3D%220%22%2F%3E%3CmxCell%20id%3D%222%22%20value%3D%22guarde%20na%20vari%C3%A1vel%20num1%22%20style%3D%22rounded%3D1%3BwhiteSpace%3Dwrap%3Bhtml%3D1%3B%22%20vertex%3D%221%22%20parent%3D%221%22%3E%3CmxGeometry%20x%3D%22325%22%20y%3D%226200%22%20width%3D%22120%22%20height%3D%2260%22%20as%3D%22geometry%22%2F%3E%3C%2FmxCell%3E%3C%2Froot%3E%3C%2FmxGraphModel%3E&lt;/span&gt;maior que numero 1" style="rounded=1;whiteSpace=wrap;html=1;" vertex="1" parent="1">
          <mxGeometry x="500" y="6530" width="120" height="60" as="geometry" />
        </mxCell>
        <mxCell id="vG_-hnopXsJ-OyCV_dhs-139" value="FIM" style="ellipse;whiteSpace=wrap;html=1;" vertex="1" parent="1">
          <mxGeometry x="325" y="6680" width="120" height="80" as="geometry" />
        </mxCell>
        <mxCell id="vG_-hnopXsJ-OyCV_dhs-142" value="&lt;span style=&quot;font-size: 18px;&quot;&gt;&lt;b&gt;MÉDIA DE 3 NOTAS&lt;/b&gt;&lt;/span&gt;" style="text;html=1;align=center;verticalAlign=middle;whiteSpace=wrap;rounded=0;" vertex="1" parent="1">
          <mxGeometry x="300" y="7070" width="170" height="30" as="geometry" />
        </mxCell>
        <mxCell id="vG_-hnopXsJ-OyCV_dhs-143" style="edgeStyle=orthogonalEdgeStyle;rounded=0;orthogonalLoop=1;jettySize=auto;html=1;entryX=0.5;entryY=0;entryDx=0;entryDy=0;" edge="1" parent="1" source="vG_-hnopXsJ-OyCV_dhs-144" target="vG_-hnopXsJ-OyCV_dhs-148">
          <mxGeometry relative="1" as="geometry" />
        </mxCell>
        <mxCell id="vG_-hnopXsJ-OyCV_dhs-144" value="inicio" style="ellipse;whiteSpace=wrap;html=1;" vertex="1" parent="1">
          <mxGeometry x="320" y="7129" width="120" height="80" as="geometry" />
        </mxCell>
        <mxCell id="vG_-hnopXsJ-OyCV_dhs-145" style="edgeStyle=orthogonalEdgeStyle;rounded=0;orthogonalLoop=1;jettySize=auto;html=1;entryX=0.5;entryY=0;entryDx=0;entryDy=0;" edge="1" parent="1" source="vG_-hnopXsJ-OyCV_dhs-146" target="vG_-hnopXsJ-OyCV_dhs-150">
          <mxGeometry relative="1" as="geometry" />
        </mxCell>
        <mxCell id="vG_-hnopXsJ-OyCV_dhs-146" value="guarde na variável num1" style="rounded=1;whiteSpace=wrap;html=1;" vertex="1" parent="1">
          <mxGeometry x="320" y="7349" width="120" height="40" as="geometry" />
        </mxCell>
        <mxCell id="vG_-hnopXsJ-OyCV_dhs-147" style="edgeStyle=orthogonalEdgeStyle;rounded=0;orthogonalLoop=1;jettySize=auto;html=1;entryX=0.5;entryY=0;entryDx=0;entryDy=0;" edge="1" parent="1" source="vG_-hnopXsJ-OyCV_dhs-148" target="vG_-hnopXsJ-OyCV_dhs-146">
          <mxGeometry relative="1" as="geometry" />
        </mxCell>
        <mxCell id="vG_-hnopXsJ-OyCV_dhs-148" value="receba um numero" style="shape=document;whiteSpace=wrap;html=1;boundedLbl=1;" vertex="1" parent="1">
          <mxGeometry x="320" y="7239" width="120" height="80" as="geometry" />
        </mxCell>
        <mxCell id="vG_-hnopXsJ-OyCV_dhs-149" style="edgeStyle=orthogonalEdgeStyle;rounded=0;orthogonalLoop=1;jettySize=auto;html=1;" edge="1" parent="1" source="vG_-hnopXsJ-OyCV_dhs-150">
          <mxGeometry relative="1" as="geometry">
            <mxPoint x="380" y="7529" as="targetPoint" />
          </mxGeometry>
        </mxCell>
        <mxCell id="vG_-hnopXsJ-OyCV_dhs-150" value="receba um numero" style="shape=document;whiteSpace=wrap;html=1;boundedLbl=1;" vertex="1" parent="1">
          <mxGeometry x="320" y="7419" width="120" height="80" as="geometry" />
        </mxCell>
        <mxCell id="vG_-hnopXsJ-OyCV_dhs-155" style="edgeStyle=orthogonalEdgeStyle;rounded=0;orthogonalLoop=1;jettySize=auto;html=1;" edge="1" parent="1" source="vG_-hnopXsJ-OyCV_dhs-151">
          <mxGeometry relative="1" as="geometry">
            <mxPoint x="380" y="7640" as="targetPoint" />
          </mxGeometry>
        </mxCell>
        <mxCell id="vG_-hnopXsJ-OyCV_dhs-151" value="guarde na variável num2" style="rounded=1;whiteSpace=wrap;html=1;" vertex="1" parent="1">
          <mxGeometry x="320" y="7539" width="120" height="60" as="geometry" />
        </mxCell>
        <mxCell id="vG_-hnopXsJ-OyCV_dhs-152" style="edgeStyle=orthogonalEdgeStyle;rounded=0;orthogonalLoop=1;jettySize=auto;html=1;" edge="1" parent="1" source="vG_-hnopXsJ-OyCV_dhs-153">
          <mxGeometry relative="1" as="geometry">
            <mxPoint x="377" y="7760" as="targetPoint" />
          </mxGeometry>
        </mxCell>
        <mxCell id="vG_-hnopXsJ-OyCV_dhs-153" value="receba um numero" style="shape=document;whiteSpace=wrap;html=1;boundedLbl=1;" vertex="1" parent="1">
          <mxGeometry x="317" y="7650" width="120" height="80" as="geometry" />
        </mxCell>
        <mxCell id="vG_-hnopXsJ-OyCV_dhs-158" style="edgeStyle=orthogonalEdgeStyle;rounded=0;orthogonalLoop=1;jettySize=auto;html=1;entryX=0.5;entryY=0;entryDx=0;entryDy=0;" edge="1" parent="1" source="vG_-hnopXsJ-OyCV_dhs-154" target="vG_-hnopXsJ-OyCV_dhs-156">
          <mxGeometry relative="1" as="geometry" />
        </mxCell>
        <mxCell id="vG_-hnopXsJ-OyCV_dhs-154" value="guarde na variável num3" style="rounded=1;whiteSpace=wrap;html=1;" vertex="1" parent="1">
          <mxGeometry x="317" y="7770" width="120" height="60" as="geometry" />
        </mxCell>
        <mxCell id="vG_-hnopXsJ-OyCV_dhs-159" style="edgeStyle=orthogonalEdgeStyle;rounded=0;orthogonalLoop=1;jettySize=auto;html=1;entryX=0;entryY=0.5;entryDx=0;entryDy=0;" edge="1" parent="1" source="vG_-hnopXsJ-OyCV_dhs-156" target="vG_-hnopXsJ-OyCV_dhs-157">
          <mxGeometry relative="1" as="geometry" />
        </mxCell>
        <mxCell id="vG_-hnopXsJ-OyCV_dhs-156" value="SOME NUM1 + NUM2 + NUM3 = R" style="rounded=1;whiteSpace=wrap;html=1;" vertex="1" parent="1">
          <mxGeometry x="317" y="7860" width="120" height="60" as="geometry" />
        </mxCell>
        <mxCell id="vG_-hnopXsJ-OyCV_dhs-161" style="edgeStyle=orthogonalEdgeStyle;rounded=0;orthogonalLoop=1;jettySize=auto;html=1;" edge="1" parent="1" source="vG_-hnopXsJ-OyCV_dhs-157" target="vG_-hnopXsJ-OyCV_dhs-160">
          <mxGeometry relative="1" as="geometry" />
        </mxCell>
        <mxCell id="vG_-hnopXsJ-OyCV_dhs-157" value="R / 3" style="rounded=1;whiteSpace=wrap;html=1;" vertex="1" parent="1">
          <mxGeometry x="500" y="7860" width="120" height="60" as="geometry" />
        </mxCell>
        <mxCell id="vG_-hnopXsJ-OyCV_dhs-163" style="edgeStyle=orthogonalEdgeStyle;rounded=0;orthogonalLoop=1;jettySize=auto;html=1;" edge="1" parent="1" source="vG_-hnopXsJ-OyCV_dhs-160" target="vG_-hnopXsJ-OyCV_dhs-162">
          <mxGeometry relative="1" as="geometry">
            <Array as="points">
              <mxPoint x="550" y="8030" />
            </Array>
          </mxGeometry>
        </mxCell>
        <mxCell id="vG_-hnopXsJ-OyCV_dhs-160" value="EXIBA O RESULTADO" style="rounded=1;whiteSpace=wrap;html=1;" vertex="1" parent="1">
          <mxGeometry x="500" y="7950" width="120" height="40" as="geometry" />
        </mxCell>
        <mxCell id="vG_-hnopXsJ-OyCV_dhs-162" value="FIM" style="ellipse;whiteSpace=wrap;html=1;" vertex="1" parent="1">
          <mxGeometry x="309" y="7990" width="120" height="80" as="geometry" />
        </mxCell>
        <mxCell id="f7E5Olf0CxDZOoJ4ey1D-1" value="&lt;span style=&quot;font-size: 18px;&quot;&gt;&lt;b&gt;CLASSIFICAÇÃO&amp;nbsp; DE IDADE&lt;/b&gt;&lt;/span&gt;" style="text;html=1;align=center;verticalAlign=middle;whiteSpace=wrap;rounded=0;" vertex="1" parent="1">
          <mxGeometry x="309" y="8250" width="170" height="30" as="geometry" />
        </mxCell>
        <mxCell id="f7E5Olf0CxDZOoJ4ey1D-24" style="edgeStyle=orthogonalEdgeStyle;rounded=0;orthogonalLoop=1;jettySize=auto;html=1;entryX=0.5;entryY=0;entryDx=0;entryDy=0;" edge="1" parent="1" source="f7E5Olf0CxDZOoJ4ey1D-2" target="f7E5Olf0CxDZOoJ4ey1D-4">
          <mxGeometry relative="1" as="geometry" />
        </mxCell>
        <mxCell id="f7E5Olf0CxDZOoJ4ey1D-2" value="inicio" style="ellipse;whiteSpace=wrap;html=1;" vertex="1" parent="1">
          <mxGeometry x="325" y="8320" width="120" height="80" as="geometry" />
        </mxCell>
        <mxCell id="f7E5Olf0CxDZOoJ4ey1D-26" style="edgeStyle=orthogonalEdgeStyle;rounded=0;orthogonalLoop=1;jettySize=auto;html=1;entryX=0.5;entryY=0;entryDx=0;entryDy=0;" edge="1" parent="1" source="f7E5Olf0CxDZOoJ4ey1D-3" target="f7E5Olf0CxDZOoJ4ey1D-5">
          <mxGeometry relative="1" as="geometry" />
        </mxCell>
        <mxCell id="f7E5Olf0CxDZOoJ4ey1D-3" value="guarde na variável num1" style="rounded=1;whiteSpace=wrap;html=1;" vertex="1" parent="1">
          <mxGeometry x="325" y="8560" width="120" height="60" as="geometry" />
        </mxCell>
        <mxCell id="f7E5Olf0CxDZOoJ4ey1D-25" style="edgeStyle=orthogonalEdgeStyle;rounded=0;orthogonalLoop=1;jettySize=auto;html=1;entryX=0.5;entryY=0;entryDx=0;entryDy=0;" edge="1" parent="1" source="f7E5Olf0CxDZOoJ4ey1D-4" target="f7E5Olf0CxDZOoJ4ey1D-3">
          <mxGeometry relative="1" as="geometry" />
        </mxCell>
        <mxCell id="f7E5Olf0CxDZOoJ4ey1D-4" value="digite um numero inteiro" style="shape=document;whiteSpace=wrap;html=1;boundedLbl=1;" vertex="1" parent="1">
          <mxGeometry x="325" y="8440" width="120" height="80" as="geometry" />
        </mxCell>
        <mxCell id="f7E5Olf0CxDZOoJ4ey1D-20" style="edgeStyle=orthogonalEdgeStyle;rounded=0;orthogonalLoop=1;jettySize=auto;html=1;entryX=0;entryY=0.5;entryDx=0;entryDy=0;" edge="1" parent="1" source="f7E5Olf0CxDZOoJ4ey1D-5" target="f7E5Olf0CxDZOoJ4ey1D-7">
          <mxGeometry relative="1" as="geometry" />
        </mxCell>
        <mxCell id="f7E5Olf0CxDZOoJ4ey1D-21" value="NÃO" style="edgeLabel;html=1;align=center;verticalAlign=middle;resizable=0;points=[];" connectable="0" vertex="1" parent="f7E5Olf0CxDZOoJ4ey1D-20">
          <mxGeometry x="-0.1034" y="-4" relative="1" as="geometry">
            <mxPoint as="offset" />
          </mxGeometry>
        </mxCell>
        <mxCell id="f7E5Olf0CxDZOoJ4ey1D-22" style="edgeStyle=orthogonalEdgeStyle;rounded=0;orthogonalLoop=1;jettySize=auto;html=1;entryX=1;entryY=0.5;entryDx=0;entryDy=0;" edge="1" parent="1" source="f7E5Olf0CxDZOoJ4ey1D-5" target="f7E5Olf0CxDZOoJ4ey1D-6">
          <mxGeometry relative="1" as="geometry" />
        </mxCell>
        <mxCell id="f7E5Olf0CxDZOoJ4ey1D-23" value="SIM" style="edgeLabel;html=1;align=center;verticalAlign=middle;resizable=0;points=[];" connectable="0" vertex="1" parent="f7E5Olf0CxDZOoJ4ey1D-22">
          <mxGeometry x="-0.0526" y="3" relative="1" as="geometry">
            <mxPoint as="offset" />
          </mxGeometry>
        </mxCell>
        <mxCell id="f7E5Olf0CxDZOoJ4ey1D-5" value="num1 &amp;lt;= 12" style="rhombus;whiteSpace=wrap;html=1;" vertex="1" parent="1">
          <mxGeometry x="345" y="8680" width="80" height="80" as="geometry" />
        </mxCell>
        <mxCell id="f7E5Olf0CxDZOoJ4ey1D-6" value="exiba &quot;Criança&quot;" style="rounded=1;whiteSpace=wrap;html=1;" vertex="1" parent="1">
          <mxGeometry x="170" y="8690" width="120" height="60" as="geometry" />
        </mxCell>
        <mxCell id="f7E5Olf0CxDZOoJ4ey1D-16" style="edgeStyle=orthogonalEdgeStyle;rounded=0;orthogonalLoop=1;jettySize=auto;html=1;entryX=0.5;entryY=0;entryDx=0;entryDy=0;" edge="1" parent="1" source="f7E5Olf0CxDZOoJ4ey1D-7" target="f7E5Olf0CxDZOoJ4ey1D-9">
          <mxGeometry relative="1" as="geometry" />
        </mxCell>
        <mxCell id="f7E5Olf0CxDZOoJ4ey1D-17" value="NÃO" style="edgeLabel;html=1;align=center;verticalAlign=middle;resizable=0;points=[];" connectable="0" vertex="1" parent="f7E5Olf0CxDZOoJ4ey1D-16">
          <mxGeometry x="-0.2667" relative="1" as="geometry">
            <mxPoint as="offset" />
          </mxGeometry>
        </mxCell>
        <mxCell id="f7E5Olf0CxDZOoJ4ey1D-18" style="edgeStyle=orthogonalEdgeStyle;rounded=0;orthogonalLoop=1;jettySize=auto;html=1;entryX=0;entryY=0.5;entryDx=0;entryDy=0;" edge="1" parent="1" source="f7E5Olf0CxDZOoJ4ey1D-7" target="f7E5Olf0CxDZOoJ4ey1D-8">
          <mxGeometry relative="1" as="geometry" />
        </mxCell>
        <mxCell id="f7E5Olf0CxDZOoJ4ey1D-19" value="SIM" style="edgeLabel;html=1;align=center;verticalAlign=middle;resizable=0;points=[];" connectable="0" vertex="1" parent="f7E5Olf0CxDZOoJ4ey1D-18">
          <mxGeometry x="-0.0316" y="1" relative="1" as="geometry">
            <mxPoint as="offset" />
          </mxGeometry>
        </mxCell>
        <mxCell id="f7E5Olf0CxDZOoJ4ey1D-7" value="num1 &amp;lt;= 17" style="rhombus;whiteSpace=wrap;html=1;" vertex="1" parent="1">
          <mxGeometry x="485" y="8680" width="80" height="80" as="geometry" />
        </mxCell>
        <mxCell id="f7E5Olf0CxDZOoJ4ey1D-8" value="exiba &quot;Adolescente&quot;" style="rounded=1;whiteSpace=wrap;html=1;" vertex="1" parent="1">
          <mxGeometry x="660" y="8690" width="120" height="60" as="geometry" />
        </mxCell>
        <mxCell id="f7E5Olf0CxDZOoJ4ey1D-15" style="edgeStyle=orthogonalEdgeStyle;rounded=0;orthogonalLoop=1;jettySize=auto;html=1;entryX=1;entryY=0.5;entryDx=0;entryDy=0;" edge="1" parent="1" source="f7E5Olf0CxDZOoJ4ey1D-9" target="f7E5Olf0CxDZOoJ4ey1D-10">
          <mxGeometry relative="1" as="geometry" />
        </mxCell>
        <mxCell id="f7E5Olf0CxDZOoJ4ey1D-9" value="num1 &amp;lt;= 59" style="rhombus;whiteSpace=wrap;html=1;" vertex="1" parent="1">
          <mxGeometry x="485" y="8820" width="80" height="80" as="geometry" />
        </mxCell>
        <mxCell id="f7E5Olf0CxDZOoJ4ey1D-10" value="exiba &quot;Adulto&quot;" style="rounded=1;whiteSpace=wrap;html=1;" vertex="1" parent="1">
          <mxGeometry x="312" y="8830" width="120" height="60" as="geometry" />
        </mxCell>
        <mxCell id="f7E5Olf0CxDZOoJ4ey1D-12" value="exina &quot;Idoso&quot;" style="rounded=1;whiteSpace=wrap;html=1;" vertex="1" parent="1">
          <mxGeometry x="470" y="8980" width="120" height="60" as="geometry" />
        </mxCell>
        <mxCell id="f7E5Olf0CxDZOoJ4ey1D-13" style="edgeStyle=orthogonalEdgeStyle;rounded=0;orthogonalLoop=1;jettySize=auto;html=1;entryX=0.433;entryY=0.067;entryDx=0;entryDy=0;entryPerimeter=0;" edge="1" parent="1" source="f7E5Olf0CxDZOoJ4ey1D-9" target="f7E5Olf0CxDZOoJ4ey1D-12">
          <mxGeometry relative="1" as="geometry" />
        </mxCell>
        <mxCell id="f7E5Olf0CxDZOoJ4ey1D-14" value="NÃO" style="edgeLabel;html=1;align=center;verticalAlign=middle;resizable=0;points=[];" connectable="0" vertex="1" parent="f7E5Olf0CxDZOoJ4ey1D-13">
          <mxGeometry x="-0.1736" y="-2" relative="1" as="geometry">
            <mxPoint as="offset" />
          </mxGeometry>
        </mxCell>
        <mxCell id="f7E5Olf0CxDZOoJ4ey1D-27" value="&lt;span style=&quot;font-size: 18px;&quot;&gt;&lt;b&gt;ANO BISSEXTO&lt;/b&gt;&lt;/span&gt;" style="text;html=1;align=center;verticalAlign=middle;whiteSpace=wrap;rounded=0;" vertex="1" parent="1">
          <mxGeometry x="329" y="9400" width="170" height="30" as="geometry" />
        </mxCell>
        <mxCell id="f7E5Olf0CxDZOoJ4ey1D-36" style="edgeStyle=orthogonalEdgeStyle;rounded=0;orthogonalLoop=1;jettySize=auto;html=1;entryX=0.5;entryY=0;entryDx=0;entryDy=0;" edge="1" parent="1" source="f7E5Olf0CxDZOoJ4ey1D-28" target="f7E5Olf0CxDZOoJ4ey1D-29">
          <mxGeometry relative="1" as="geometry" />
        </mxCell>
        <mxCell id="f7E5Olf0CxDZOoJ4ey1D-28" value="inicio" style="ellipse;whiteSpace=wrap;html=1;" vertex="1" parent="1">
          <mxGeometry x="347" y="9460" width="120" height="80" as="geometry" />
        </mxCell>
        <mxCell id="f7E5Olf0CxDZOoJ4ey1D-37" style="edgeStyle=orthogonalEdgeStyle;rounded=0;orthogonalLoop=1;jettySize=auto;html=1;entryX=0.5;entryY=0;entryDx=0;entryDy=0;" edge="1" parent="1" source="f7E5Olf0CxDZOoJ4ey1D-29" target="f7E5Olf0CxDZOoJ4ey1D-30">
          <mxGeometry relative="1" as="geometry" />
        </mxCell>
        <mxCell id="f7E5Olf0CxDZOoJ4ey1D-29" value="receba um numero inteiro" style="shape=document;whiteSpace=wrap;html=1;boundedLbl=1;" vertex="1" parent="1">
          <mxGeometry x="347" y="9600" width="120" height="80" as="geometry" />
        </mxCell>
        <mxCell id="f7E5Olf0CxDZOoJ4ey1D-40" style="edgeStyle=orthogonalEdgeStyle;rounded=0;orthogonalLoop=1;jettySize=auto;html=1;entryX=0.5;entryY=0;entryDx=0;entryDy=0;" edge="1" parent="1" source="f7E5Olf0CxDZOoJ4ey1D-30" target="f7E5Olf0CxDZOoJ4ey1D-31">
          <mxGeometry relative="1" as="geometry" />
        </mxCell>
        <mxCell id="f7E5Olf0CxDZOoJ4ey1D-30" value="guarde na&amp;nbsp; variável num1&amp;nbsp;" style="rounded=1;whiteSpace=wrap;html=1;" vertex="1" parent="1">
          <mxGeometry x="347" y="9730" width="120" height="60" as="geometry" />
        </mxCell>
        <mxCell id="f7E5Olf0CxDZOoJ4ey1D-41" style="edgeStyle=orthogonalEdgeStyle;rounded=0;orthogonalLoop=1;jettySize=auto;html=1;entryX=0.5;entryY=0;entryDx=0;entryDy=0;" edge="1" parent="1" source="f7E5Olf0CxDZOoJ4ey1D-31" target="f7E5Olf0CxDZOoJ4ey1D-33">
          <mxGeometry relative="1" as="geometry" />
        </mxCell>
        <mxCell id="f7E5Olf0CxDZOoJ4ey1D-42" value="NÃO" style="edgeLabel;html=1;align=center;verticalAlign=middle;resizable=0;points=[];" connectable="0" vertex="1" parent="f7E5Olf0CxDZOoJ4ey1D-41">
          <mxGeometry x="-0.25" y="-2" relative="1" as="geometry">
            <mxPoint as="offset" />
          </mxGeometry>
        </mxCell>
        <mxCell id="f7E5Olf0CxDZOoJ4ey1D-49" style="edgeStyle=orthogonalEdgeStyle;rounded=0;orthogonalLoop=1;jettySize=auto;html=1;entryX=1;entryY=0.5;entryDx=0;entryDy=0;" edge="1" parent="1" source="f7E5Olf0CxDZOoJ4ey1D-31" target="f7E5Olf0CxDZOoJ4ey1D-47">
          <mxGeometry relative="1" as="geometry" />
        </mxCell>
        <mxCell id="f7E5Olf0CxDZOoJ4ey1D-31" value="num1 / 4" style="rhombus;whiteSpace=wrap;html=1;" vertex="1" parent="1">
          <mxGeometry x="367" y="9840" width="80" height="80" as="geometry" />
        </mxCell>
        <mxCell id="f7E5Olf0CxDZOoJ4ey1D-32" value="exiba &quot;ano bissexto&quot;" style="rounded=1;whiteSpace=wrap;html=1;" vertex="1" parent="1">
          <mxGeometry x="680" y="9970" width="120" height="60" as="geometry" />
        </mxCell>
        <mxCell id="f7E5Olf0CxDZOoJ4ey1D-43" style="edgeStyle=orthogonalEdgeStyle;rounded=0;orthogonalLoop=1;jettySize=auto;html=1;entryX=0;entryY=0.5;entryDx=0;entryDy=0;" edge="1" parent="1" source="f7E5Olf0CxDZOoJ4ey1D-33" target="f7E5Olf0CxDZOoJ4ey1D-34">
          <mxGeometry relative="1" as="geometry" />
        </mxCell>
        <mxCell id="f7E5Olf0CxDZOoJ4ey1D-44" value="SIM" style="edgeLabel;html=1;align=center;verticalAlign=middle;resizable=0;points=[];" connectable="0" vertex="1" parent="f7E5Olf0CxDZOoJ4ey1D-43">
          <mxGeometry x="-0.0753" y="-2" relative="1" as="geometry">
            <mxPoint as="offset" />
          </mxGeometry>
        </mxCell>
        <mxCell id="f7E5Olf0CxDZOoJ4ey1D-50" style="edgeStyle=orthogonalEdgeStyle;rounded=0;orthogonalLoop=1;jettySize=auto;html=1;entryX=1;entryY=0.5;entryDx=0;entryDy=0;" edge="1" parent="1" source="f7E5Olf0CxDZOoJ4ey1D-33" target="f7E5Olf0CxDZOoJ4ey1D-48">
          <mxGeometry relative="1" as="geometry" />
        </mxCell>
        <mxCell id="f7E5Olf0CxDZOoJ4ey1D-33" value="num1 / 100" style="rhombus;whiteSpace=wrap;html=1;" vertex="1" parent="1">
          <mxGeometry x="367" y="9960" width="80" height="80" as="geometry" />
        </mxCell>
        <mxCell id="f7E5Olf0CxDZOoJ4ey1D-45" style="edgeStyle=orthogonalEdgeStyle;rounded=0;orthogonalLoop=1;jettySize=auto;html=1;entryX=0;entryY=0.5;entryDx=0;entryDy=0;" edge="1" parent="1" source="f7E5Olf0CxDZOoJ4ey1D-34" target="f7E5Olf0CxDZOoJ4ey1D-32">
          <mxGeometry relative="1" as="geometry" />
        </mxCell>
        <mxCell id="f7E5Olf0CxDZOoJ4ey1D-46" value="SIM" style="edgeLabel;html=1;align=center;verticalAlign=middle;resizable=0;points=[];" connectable="0" vertex="1" parent="f7E5Olf0CxDZOoJ4ey1D-45">
          <mxGeometry x="-0.1667" y="2" relative="1" as="geometry">
            <mxPoint as="offset" />
          </mxGeometry>
        </mxCell>
        <mxCell id="f7E5Olf0CxDZOoJ4ey1D-34" value="num1 / 400" style="rhombus;whiteSpace=wrap;html=1;" vertex="1" parent="1">
          <mxGeometry x="540" y="9960" width="80" height="80" as="geometry" />
        </mxCell>
        <mxCell id="f7E5Olf0CxDZOoJ4ey1D-55" style="edgeStyle=orthogonalEdgeStyle;rounded=0;orthogonalLoop=1;jettySize=auto;html=1;entryX=1;entryY=0.5;entryDx=0;entryDy=0;" edge="1" parent="1" source="f7E5Olf0CxDZOoJ4ey1D-35" target="f7E5Olf0CxDZOoJ4ey1D-52">
          <mxGeometry relative="1" as="geometry">
            <Array as="points">
              <mxPoint x="590" y="10180" />
            </Array>
          </mxGeometry>
        </mxCell>
        <mxCell id="f7E5Olf0CxDZOoJ4ey1D-35" value="&#xa;&lt;span style=&quot;color: rgb(0, 0, 0); font-family: Helvetica; font-size: 12px; font-style: normal; font-variant-ligatures: normal; font-variant-caps: normal; font-weight: 400; letter-spacing: normal; orphans: 2; text-align: center; text-indent: 0px; text-transform: none; widows: 2; word-spacing: 0px; -webkit-text-stroke-width: 0px; white-space: normal; background-color: rgb(251, 251, 251); text-decoration-thickness: initial; text-decoration-style: initial; text-decoration-color: initial; display: inline !important; float: none;&quot;&gt;exiba &quot;ano não bissexto&quot;&lt;/span&gt;&#xa;&#xa;" style="rounded=1;whiteSpace=wrap;html=1;" vertex="1" parent="1">
          <mxGeometry x="530" y="10090" width="120" height="60" as="geometry" />
        </mxCell>
        <mxCell id="f7E5Olf0CxDZOoJ4ey1D-53" style="edgeStyle=orthogonalEdgeStyle;rounded=0;orthogonalLoop=1;jettySize=auto;html=1;entryX=0;entryY=0.5;entryDx=0;entryDy=0;" edge="1" parent="1" source="f7E5Olf0CxDZOoJ4ey1D-47" target="f7E5Olf0CxDZOoJ4ey1D-52">
          <mxGeometry relative="1" as="geometry">
            <Array as="points">
              <mxPoint x="20" y="9880" />
              <mxPoint x="20" y="10180" />
            </Array>
          </mxGeometry>
        </mxCell>
        <mxCell id="f7E5Olf0CxDZOoJ4ey1D-47" value="exiba &quot;ano não bissexto&quot;" style="rounded=1;whiteSpace=wrap;html=1;" vertex="1" parent="1">
          <mxGeometry x="180" y="9850" width="120" height="60" as="geometry" />
        </mxCell>
        <mxCell id="f7E5Olf0CxDZOoJ4ey1D-54" style="edgeStyle=orthogonalEdgeStyle;rounded=0;orthogonalLoop=1;jettySize=auto;html=1;" edge="1" parent="1" source="f7E5Olf0CxDZOoJ4ey1D-48">
          <mxGeometry relative="1" as="geometry">
            <mxPoint x="130" y="10180" as="targetPoint" />
          </mxGeometry>
        </mxCell>
        <mxCell id="f7E5Olf0CxDZOoJ4ey1D-48" value="exiba &quot;ano não bissexto&quot;" style="rounded=1;whiteSpace=wrap;html=1;" vertex="1" parent="1">
          <mxGeometry x="180" y="9970" width="120" height="60" as="geometry" />
        </mxCell>
        <mxCell id="f7E5Olf0CxDZOoJ4ey1D-51" style="edgeStyle=orthogonalEdgeStyle;rounded=0;orthogonalLoop=1;jettySize=auto;html=1;entryX=0.417;entryY=-0.05;entryDx=0;entryDy=0;entryPerimeter=0;" edge="1" parent="1" source="f7E5Olf0CxDZOoJ4ey1D-34" target="f7E5Olf0CxDZOoJ4ey1D-35">
          <mxGeometry relative="1" as="geometry" />
        </mxCell>
        <mxCell id="f7E5Olf0CxDZOoJ4ey1D-52" value="NÃO" style="ellipse;whiteSpace=wrap;html=1;" vertex="1" parent="1">
          <mxGeometry x="347" y="10140" width="120" height="80" as="geometry" />
        </mxCell>
        <mxCell id="f7E5Olf0CxDZOoJ4ey1D-56" value="&lt;span style=&quot;font-size: 18px;&quot;&gt;&lt;b&gt;CONTAGEM REGRASSIVA&lt;/b&gt;&lt;/span&gt;" style="text;html=1;align=center;verticalAlign=middle;whiteSpace=wrap;rounded=0;" vertex="1" parent="1">
          <mxGeometry x="309" y="10580" width="170" height="30" as="geometry" />
        </mxCell>
        <mxCell id="f7E5Olf0CxDZOoJ4ey1D-60" style="edgeStyle=orthogonalEdgeStyle;rounded=0;orthogonalLoop=1;jettySize=auto;html=1;" edge="1" parent="1" source="f7E5Olf0CxDZOoJ4ey1D-57">
          <mxGeometry relative="1" as="geometry">
            <mxPoint x="394" y="10790" as="targetPoint" />
          </mxGeometry>
        </mxCell>
        <mxCell id="f7E5Olf0CxDZOoJ4ey1D-57" value="inicio" style="ellipse;whiteSpace=wrap;html=1;" vertex="1" parent="1">
          <mxGeometry x="334" y="10650" width="120" height="80" as="geometry" />
        </mxCell>
        <mxCell id="f7E5Olf0CxDZOoJ4ey1D-61" style="edgeStyle=orthogonalEdgeStyle;rounded=0;orthogonalLoop=1;jettySize=auto;html=1;entryX=0.5;entryY=0;entryDx=0;entryDy=0;" edge="1" parent="1" source="f7E5Olf0CxDZOoJ4ey1D-58" target="f7E5Olf0CxDZOoJ4ey1D-59">
          <mxGeometry relative="1" as="geometry" />
        </mxCell>
        <mxCell id="f7E5Olf0CxDZOoJ4ey1D-58" value="receba um numero inteiro" style="shape=document;whiteSpace=wrap;html=1;boundedLbl=1;" vertex="1" parent="1">
          <mxGeometry x="334" y="10790" width="120" height="80" as="geometry" />
        </mxCell>
        <mxCell id="f7E5Olf0CxDZOoJ4ey1D-63" style="edgeStyle=orthogonalEdgeStyle;rounded=0;orthogonalLoop=1;jettySize=auto;html=1;entryX=0.5;entryY=0;entryDx=0;entryDy=0;" edge="1" parent="1" source="f7E5Olf0CxDZOoJ4ey1D-59" target="f7E5Olf0CxDZOoJ4ey1D-62">
          <mxGeometry relative="1" as="geometry" />
        </mxCell>
        <mxCell id="f7E5Olf0CxDZOoJ4ey1D-59" value="guarde na&amp;nbsp; variável num1&amp;nbsp;" style="rounded=1;whiteSpace=wrap;html=1;" vertex="1" parent="1">
          <mxGeometry x="334" y="10910" width="120" height="40" as="geometry" />
        </mxCell>
        <mxCell id="f7E5Olf0CxDZOoJ4ey1D-66" style="edgeStyle=orthogonalEdgeStyle;rounded=0;orthogonalLoop=1;jettySize=auto;html=1;entryX=0;entryY=0.5;entryDx=0;entryDy=0;" edge="1" parent="1" source="f7E5Olf0CxDZOoJ4ey1D-62" target="f7E5Olf0CxDZOoJ4ey1D-65">
          <mxGeometry relative="1" as="geometry" />
        </mxCell>
        <mxCell id="f7E5Olf0CxDZOoJ4ey1D-71" style="edgeStyle=orthogonalEdgeStyle;rounded=0;orthogonalLoop=1;jettySize=auto;html=1;entryX=1;entryY=0.5;entryDx=0;entryDy=0;" edge="1" parent="1" source="f7E5Olf0CxDZOoJ4ey1D-62" target="f7E5Olf0CxDZOoJ4ey1D-70">
          <mxGeometry relative="1" as="geometry" />
        </mxCell>
        <mxCell id="f7E5Olf0CxDZOoJ4ey1D-62" value="num1 &amp;lt;= 0" style="rhombus;whiteSpace=wrap;html=1;" vertex="1" parent="1">
          <mxGeometry x="354" y="11010" width="80" height="80" as="geometry" />
        </mxCell>
        <mxCell id="f7E5Olf0CxDZOoJ4ey1D-69" style="edgeStyle=orthogonalEdgeStyle;rounded=0;orthogonalLoop=1;jettySize=auto;html=1;entryX=0.5;entryY=1;entryDx=0;entryDy=0;" edge="1" parent="1" source="f7E5Olf0CxDZOoJ4ey1D-64" target="f7E5Olf0CxDZOoJ4ey1D-62">
          <mxGeometry relative="1" as="geometry" />
        </mxCell>
        <mxCell id="f7E5Olf0CxDZOoJ4ey1D-64" value="num1 - 1" style="rounded=1;whiteSpace=wrap;html=1;" vertex="1" parent="1">
          <mxGeometry x="510" y="11120" width="120" height="60" as="geometry" />
        </mxCell>
        <mxCell id="f7E5Olf0CxDZOoJ4ey1D-67" style="edgeStyle=orthogonalEdgeStyle;rounded=0;orthogonalLoop=1;jettySize=auto;html=1;entryX=0.5;entryY=0;entryDx=0;entryDy=0;" edge="1" parent="1" source="f7E5Olf0CxDZOoJ4ey1D-65" target="f7E5Olf0CxDZOoJ4ey1D-64">
          <mxGeometry relative="1" as="geometry" />
        </mxCell>
        <mxCell id="f7E5Olf0CxDZOoJ4ey1D-65" value="exina &quot;num1&quot;" style="rounded=1;whiteSpace=wrap;html=1;" vertex="1" parent="1">
          <mxGeometry x="510" y="11020" width="120" height="60" as="geometry" />
        </mxCell>
        <mxCell id="f7E5Olf0CxDZOoJ4ey1D-70" value="fim" style="ellipse;whiteSpace=wrap;html=1;" vertex="1" parent="1">
          <mxGeometry x="140" y="11010" width="120" height="80" as="geometry" />
        </mxCell>
      </root>
    </mxGraphModel>
  </diagram>
</mxfile>
